<mxfile host="app.diagrams.net" modified="2023-09-04T19:19:23.411Z" agent="Mozilla/5.0 (Macintosh; Intel Mac OS X 10_15_7) AppleWebKit/605.1.15 (KHTML, like Gecko) Version/16.6 Safari/605.1.15" etag="L9HDxx_Iyf9SwhufifU4" version="21.7.2" type="device">
  <diagram name="Page-1" id="p03gnZshj69oHEGK2yCF">
    <mxGraphModel dx="1804" dy="622" grid="1" gridSize="10" guides="1" tooltips="1" connect="1" arrows="1" fold="1" page="1" pageScale="1" pageWidth="850" pageHeight="1100" math="0" shadow="0">
      <root>
        <mxCell id="0" />
        <mxCell id="1" parent="0" />
        <mxCell id="ljSAuXmUNwxbx2FRJAMX-12" value="" style="rounded=0;whiteSpace=wrap;html=1;" vertex="1" parent="1">
          <mxGeometry x="380" width="1120" height="510" as="geometry" />
        </mxCell>
        <mxCell id="ljSAuXmUNwxbx2FRJAMX-68" value="" style="rounded=0;whiteSpace=wrap;html=1;dashed=1;" vertex="1" parent="1">
          <mxGeometry x="430" y="100" width="430" height="170" as="geometry" />
        </mxCell>
        <mxCell id="ljSAuXmUNwxbx2FRJAMX-65" value="" style="rounded=0;whiteSpace=wrap;html=1;" vertex="1" parent="1">
          <mxGeometry x="425" y="350" width="525" height="125" as="geometry" />
        </mxCell>
        <mxCell id="ljSAuXmUNwxbx2FRJAMX-63" value="" style="rounded=0;whiteSpace=wrap;html=1;dashed=1;" vertex="1" parent="1">
          <mxGeometry x="1210" y="140" width="250" height="210" as="geometry" />
        </mxCell>
        <mxCell id="ljSAuXmUNwxbx2FRJAMX-72" style="edgeStyle=orthogonalEdgeStyle;rounded=0;orthogonalLoop=1;jettySize=auto;html=1;exitX=0.5;exitY=1;exitDx=0;exitDy=0;entryX=1;entryY=0.5;entryDx=0;entryDy=0;dashed=1;" edge="1" parent="1" source="ljSAuXmUNwxbx2FRJAMX-61" target="ljSAuXmUNwxbx2FRJAMX-21">
          <mxGeometry relative="1" as="geometry" />
        </mxCell>
        <mxCell id="ljSAuXmUNwxbx2FRJAMX-61" value="" style="rounded=0;whiteSpace=wrap;html=1;dashed=1;" vertex="1" parent="1">
          <mxGeometry x="880" y="110" width="200" height="90" as="geometry" />
        </mxCell>
        <mxCell id="ljSAuXmUNwxbx2FRJAMX-1" value="C" style="rounded=0;whiteSpace=wrap;html=1;" vertex="1" parent="1">
          <mxGeometry x="-10" width="280" height="400" as="geometry" />
        </mxCell>
        <mxCell id="ljSAuXmUNwxbx2FRJAMX-2" value="kube-api-server" style="rounded=0;whiteSpace=wrap;html=1;" vertex="1" parent="1">
          <mxGeometry x="10" y="80" width="230" height="30" as="geometry" />
        </mxCell>
        <mxCell id="ljSAuXmUNwxbx2FRJAMX-4" value="kube-dns" style="rounded=0;whiteSpace=wrap;html=1;" vertex="1" parent="1">
          <mxGeometry x="150" y="240" width="90" height="30" as="geometry" />
        </mxCell>
        <mxCell id="ljSAuXmUNwxbx2FRJAMX-5" value="kube-scheduler" style="rounded=0;whiteSpace=wrap;html=1;" vertex="1" parent="1">
          <mxGeometry x="150" y="300" width="90" height="30" as="geometry" />
        </mxCell>
        <mxCell id="ljSAuXmUNwxbx2FRJAMX-37" style="edgeStyle=orthogonalEdgeStyle;rounded=0;orthogonalLoop=1;jettySize=auto;html=1;exitX=1;exitY=0.5;exitDx=0;exitDy=0;entryX=0;entryY=0.5;entryDx=0;entryDy=0;" edge="1" parent="1" source="ljSAuXmUNwxbx2FRJAMX-5" target="ljSAuXmUNwxbx2FRJAMX-21">
          <mxGeometry relative="1" as="geometry">
            <Array as="points">
              <mxPoint x="240" y="315" />
            </Array>
          </mxGeometry>
        </mxCell>
        <mxCell id="ljSAuXmUNwxbx2FRJAMX-6" value="kube-proxy" style="rounded=0;whiteSpace=wrap;html=1;" vertex="1" parent="1">
          <mxGeometry x="10" y="240" width="90" height="30" as="geometry" />
        </mxCell>
        <mxCell id="ljSAuXmUNwxbx2FRJAMX-7" value="etcd" style="rounded=0;whiteSpace=wrap;html=1;" vertex="1" parent="1">
          <mxGeometry x="10" y="300" width="90" height="30" as="geometry" />
        </mxCell>
        <mxCell id="ljSAuXmUNwxbx2FRJAMX-8" value="kube-controller-manager" style="rounded=0;whiteSpace=wrap;html=1;" vertex="1" parent="1">
          <mxGeometry x="10" y="130" width="230" height="30" as="geometry" />
        </mxCell>
        <mxCell id="ljSAuXmUNwxbx2FRJAMX-9" value="cloud-controller-manager" style="rounded=0;whiteSpace=wrap;html=1;" vertex="1" parent="1">
          <mxGeometry x="10" y="180" width="230" height="30" as="geometry" />
        </mxCell>
        <mxCell id="ljSAuXmUNwxbx2FRJAMX-38" style="edgeStyle=orthogonalEdgeStyle;rounded=0;orthogonalLoop=1;jettySize=auto;html=1;exitX=1;exitY=0.5;exitDx=0;exitDy=0;entryX=0;entryY=0.5;entryDx=0;entryDy=0;" edge="1" parent="1" source="ljSAuXmUNwxbx2FRJAMX-10" target="ljSAuXmUNwxbx2FRJAMX-21">
          <mxGeometry relative="1" as="geometry">
            <Array as="points">
              <mxPoint x="330" y="365" />
              <mxPoint x="330" y="315" />
            </Array>
          </mxGeometry>
        </mxCell>
        <mxCell id="ljSAuXmUNwxbx2FRJAMX-10" value="kubelet" style="rounded=0;whiteSpace=wrap;html=1;" vertex="1" parent="1">
          <mxGeometry x="80" y="350" width="90" height="30" as="geometry" />
        </mxCell>
        <mxCell id="ljSAuXmUNwxbx2FRJAMX-55" style="edgeStyle=orthogonalEdgeStyle;rounded=0;orthogonalLoop=1;jettySize=auto;html=1;exitX=0.5;exitY=1;exitDx=0;exitDy=0;" edge="1" parent="1" source="ljSAuXmUNwxbx2FRJAMX-14" target="ljSAuXmUNwxbx2FRJAMX-16">
          <mxGeometry relative="1" as="geometry">
            <Array as="points">
              <mxPoint x="715" y="140" />
              <mxPoint x="490" y="140" />
            </Array>
          </mxGeometry>
        </mxCell>
        <mxCell id="ljSAuXmUNwxbx2FRJAMX-56" style="edgeStyle=orthogonalEdgeStyle;rounded=0;orthogonalLoop=1;jettySize=auto;html=1;exitX=0.5;exitY=1;exitDx=0;exitDy=0;entryX=0.5;entryY=0;entryDx=0;entryDy=0;" edge="1" parent="1" source="ljSAuXmUNwxbx2FRJAMX-14" target="ljSAuXmUNwxbx2FRJAMX-18">
          <mxGeometry relative="1" as="geometry">
            <Array as="points">
              <mxPoint x="715" y="140" />
              <mxPoint x="630" y="140" />
            </Array>
          </mxGeometry>
        </mxCell>
        <mxCell id="ljSAuXmUNwxbx2FRJAMX-57" style="edgeStyle=orthogonalEdgeStyle;rounded=0;orthogonalLoop=1;jettySize=auto;html=1;exitX=0.5;exitY=1;exitDx=0;exitDy=0;" edge="1" parent="1" source="ljSAuXmUNwxbx2FRJAMX-14" target="ljSAuXmUNwxbx2FRJAMX-19">
          <mxGeometry relative="1" as="geometry">
            <Array as="points">
              <mxPoint x="715" y="140" />
              <mxPoint x="790" y="140" />
            </Array>
          </mxGeometry>
        </mxCell>
        <mxCell id="ljSAuXmUNwxbx2FRJAMX-60" style="edgeStyle=orthogonalEdgeStyle;rounded=0;orthogonalLoop=1;jettySize=auto;html=1;exitX=0;exitY=0.5;exitDx=0;exitDy=0;entryX=0;entryY=0.5;entryDx=0;entryDy=0;" edge="1" parent="1" source="ljSAuXmUNwxbx2FRJAMX-14" target="ljSAuXmUNwxbx2FRJAMX-21">
          <mxGeometry relative="1" as="geometry">
            <Array as="points">
              <mxPoint x="420" y="65" />
              <mxPoint x="420" y="315" />
            </Array>
          </mxGeometry>
        </mxCell>
        <mxCell id="ljSAuXmUNwxbx2FRJAMX-14" value="Namespace" style="rounded=0;whiteSpace=wrap;html=1;" vertex="1" parent="1">
          <mxGeometry x="600" y="50" width="230" height="30" as="geometry" />
        </mxCell>
        <mxCell id="ljSAuXmUNwxbx2FRJAMX-33" style="edgeStyle=orthogonalEdgeStyle;rounded=0;orthogonalLoop=1;jettySize=auto;html=1;exitX=0.5;exitY=1;exitDx=0;exitDy=0;entryX=0.5;entryY=0;entryDx=0;entryDy=0;" edge="1" parent="1" source="ljSAuXmUNwxbx2FRJAMX-16" target="ljSAuXmUNwxbx2FRJAMX-20">
          <mxGeometry relative="1" as="geometry" />
        </mxCell>
        <mxCell id="ljSAuXmUNwxbx2FRJAMX-16" value="Deployment" style="rounded=0;whiteSpace=wrap;html=1;" vertex="1" parent="1">
          <mxGeometry x="450" y="170" width="80" height="30" as="geometry" />
        </mxCell>
        <mxCell id="ljSAuXmUNwxbx2FRJAMX-35" style="edgeStyle=orthogonalEdgeStyle;rounded=0;orthogonalLoop=1;jettySize=auto;html=1;exitX=0.5;exitY=1;exitDx=0;exitDy=0;entryX=0.5;entryY=0;entryDx=0;entryDy=0;" edge="1" parent="1" source="ljSAuXmUNwxbx2FRJAMX-18" target="ljSAuXmUNwxbx2FRJAMX-21">
          <mxGeometry relative="1" as="geometry">
            <mxPoint x="600" y="310" as="targetPoint" />
          </mxGeometry>
        </mxCell>
        <mxCell id="ljSAuXmUNwxbx2FRJAMX-18" value="StatefulSet" style="rounded=0;whiteSpace=wrap;html=1;" vertex="1" parent="1">
          <mxGeometry x="590" y="170" width="80" height="30" as="geometry" />
        </mxCell>
        <mxCell id="ljSAuXmUNwxbx2FRJAMX-74" style="edgeStyle=orthogonalEdgeStyle;rounded=0;orthogonalLoop=1;jettySize=auto;html=1;exitX=0.5;exitY=1;exitDx=0;exitDy=0;" edge="1" parent="1" source="ljSAuXmUNwxbx2FRJAMX-19">
          <mxGeometry relative="1" as="geometry">
            <mxPoint x="630" y="300" as="targetPoint" />
            <Array as="points">
              <mxPoint x="790" y="280" />
              <mxPoint x="631" y="280" />
            </Array>
          </mxGeometry>
        </mxCell>
        <mxCell id="ljSAuXmUNwxbx2FRJAMX-19" value="DaemonSet" style="rounded=0;whiteSpace=wrap;html=1;" vertex="1" parent="1">
          <mxGeometry x="750" y="170" width="80" height="30" as="geometry" />
        </mxCell>
        <mxCell id="ljSAuXmUNwxbx2FRJAMX-32" style="edgeStyle=orthogonalEdgeStyle;rounded=0;orthogonalLoop=1;jettySize=auto;html=1;exitX=0.5;exitY=1;exitDx=0;exitDy=0;entryX=0.5;entryY=0;entryDx=0;entryDy=0;" edge="1" parent="1" source="ljSAuXmUNwxbx2FRJAMX-20" target="ljSAuXmUNwxbx2FRJAMX-21">
          <mxGeometry relative="1" as="geometry">
            <mxPoint x="600" y="310" as="targetPoint" />
            <Array as="points">
              <mxPoint x="490" y="280" />
              <mxPoint x="630" y="280" />
            </Array>
          </mxGeometry>
        </mxCell>
        <mxCell id="ljSAuXmUNwxbx2FRJAMX-20" value="ReplicaSet" style="rounded=0;whiteSpace=wrap;html=1;" vertex="1" parent="1">
          <mxGeometry x="450" y="220" width="80" height="30" as="geometry" />
        </mxCell>
        <mxCell id="ljSAuXmUNwxbx2FRJAMX-39" style="edgeStyle=orthogonalEdgeStyle;rounded=0;orthogonalLoop=1;jettySize=auto;html=1;exitX=0.5;exitY=1;exitDx=0;exitDy=0;entryX=0.588;entryY=-0.1;entryDx=0;entryDy=0;entryPerimeter=0;" edge="1" parent="1" source="ljSAuXmUNwxbx2FRJAMX-21" target="ljSAuXmUNwxbx2FRJAMX-22">
          <mxGeometry relative="1" as="geometry" />
        </mxCell>
        <mxCell id="ljSAuXmUNwxbx2FRJAMX-40" style="edgeStyle=orthogonalEdgeStyle;rounded=0;orthogonalLoop=1;jettySize=auto;html=1;exitX=0.5;exitY=1;exitDx=0;exitDy=0;entryX=0.5;entryY=0;entryDx=0;entryDy=0;" edge="1" parent="1" source="ljSAuXmUNwxbx2FRJAMX-21" target="ljSAuXmUNwxbx2FRJAMX-23">
          <mxGeometry relative="1" as="geometry" />
        </mxCell>
        <mxCell id="ljSAuXmUNwxbx2FRJAMX-41" style="edgeStyle=orthogonalEdgeStyle;rounded=0;orthogonalLoop=1;jettySize=auto;html=1;exitX=0.5;exitY=1;exitDx=0;exitDy=0;entryX=0.5;entryY=0;entryDx=0;entryDy=0;" edge="1" parent="1" source="ljSAuXmUNwxbx2FRJAMX-21" target="ljSAuXmUNwxbx2FRJAMX-24">
          <mxGeometry relative="1" as="geometry" />
        </mxCell>
        <mxCell id="ljSAuXmUNwxbx2FRJAMX-42" style="edgeStyle=orthogonalEdgeStyle;rounded=0;orthogonalLoop=1;jettySize=auto;html=1;exitX=0.5;exitY=1;exitDx=0;exitDy=0;" edge="1" parent="1" source="ljSAuXmUNwxbx2FRJAMX-21" target="ljSAuXmUNwxbx2FRJAMX-25">
          <mxGeometry relative="1" as="geometry" />
        </mxCell>
        <mxCell id="ljSAuXmUNwxbx2FRJAMX-21" value="Pods" style="rounded=0;whiteSpace=wrap;html=1;" vertex="1" parent="1">
          <mxGeometry x="590" y="300" width="80" height="30" as="geometry" />
        </mxCell>
        <mxCell id="ljSAuXmUNwxbx2FRJAMX-22" value="Container" style="rounded=0;whiteSpace=wrap;html=1;" vertex="1" parent="1">
          <mxGeometry x="450" y="430" width="80" height="30" as="geometry" />
        </mxCell>
        <mxCell id="ljSAuXmUNwxbx2FRJAMX-23" value="Sidecar" style="rounded=0;whiteSpace=wrap;html=1;" vertex="1" parent="1">
          <mxGeometry x="560" y="430" width="80" height="30" as="geometry" />
        </mxCell>
        <mxCell id="ljSAuXmUNwxbx2FRJAMX-24" value="initContainer" style="rounded=0;whiteSpace=wrap;html=1;" vertex="1" parent="1">
          <mxGeometry x="690" y="430" width="80" height="30" as="geometry" />
        </mxCell>
        <mxCell id="ljSAuXmUNwxbx2FRJAMX-25" value="Probes" style="rounded=0;whiteSpace=wrap;html=1;" vertex="1" parent="1">
          <mxGeometry x="810" y="430" width="80" height="30" as="geometry" />
        </mxCell>
        <mxCell id="ljSAuXmUNwxbx2FRJAMX-26" value="ConfigMap" style="rounded=0;whiteSpace=wrap;html=1;" vertex="1" parent="1">
          <mxGeometry x="890" y="155" width="80" height="30" as="geometry" />
        </mxCell>
        <mxCell id="ljSAuXmUNwxbx2FRJAMX-27" value="Secret" style="rounded=0;whiteSpace=wrap;html=1;" vertex="1" parent="1">
          <mxGeometry x="990" y="155" width="80" height="30" as="geometry" />
        </mxCell>
        <mxCell id="ljSAuXmUNwxbx2FRJAMX-50" style="edgeStyle=orthogonalEdgeStyle;rounded=0;orthogonalLoop=1;jettySize=auto;html=1;exitX=0.5;exitY=1;exitDx=0;exitDy=0;entryX=0.5;entryY=0;entryDx=0;entryDy=0;" edge="1" parent="1" source="ljSAuXmUNwxbx2FRJAMX-43" target="ljSAuXmUNwxbx2FRJAMX-48">
          <mxGeometry relative="1" as="geometry" />
        </mxCell>
        <mxCell id="ljSAuXmUNwxbx2FRJAMX-43" value="Nodes" style="rounded=0;whiteSpace=wrap;html=1;" vertex="1" parent="1">
          <mxGeometry x="1315" y="90" width="80" height="30" as="geometry" />
        </mxCell>
        <mxCell id="ljSAuXmUNwxbx2FRJAMX-45" value="&lt;font style=&quot;font-size: 21px;&quot;&gt;Control Plane&lt;/font&gt;" style="text;html=1;strokeColor=none;fillColor=none;align=center;verticalAlign=middle;whiteSpace=wrap;rounded=0;" vertex="1" parent="1">
          <mxGeometry x="52.5" y="10" width="145" height="30" as="geometry" />
        </mxCell>
        <mxCell id="ljSAuXmUNwxbx2FRJAMX-47" value="&lt;font style=&quot;font-size: 21px;&quot;&gt;Worker Plane&lt;/font&gt;" style="text;html=1;strokeColor=none;fillColor=none;align=center;verticalAlign=middle;whiteSpace=wrap;rounded=0;" vertex="1" parent="1">
          <mxGeometry x="650" y="10" width="160" height="30" as="geometry" />
        </mxCell>
        <mxCell id="ljSAuXmUNwxbx2FRJAMX-52" style="edgeStyle=orthogonalEdgeStyle;rounded=0;orthogonalLoop=1;jettySize=auto;html=1;exitX=0.5;exitY=1;exitDx=0;exitDy=0;entryX=0.5;entryY=0;entryDx=0;entryDy=0;startArrow=classic;startFill=1;" edge="1" parent="1" source="ljSAuXmUNwxbx2FRJAMX-48" target="ljSAuXmUNwxbx2FRJAMX-51">
          <mxGeometry relative="1" as="geometry" />
        </mxCell>
        <mxCell id="ljSAuXmUNwxbx2FRJAMX-48" value="Persistent Volume" style="rounded=0;whiteSpace=wrap;html=1;" vertex="1" parent="1">
          <mxGeometry x="1290" y="210" width="130" height="30" as="geometry" />
        </mxCell>
        <mxCell id="ljSAuXmUNwxbx2FRJAMX-53" style="edgeStyle=orthogonalEdgeStyle;rounded=0;orthogonalLoop=1;jettySize=auto;html=1;exitX=0;exitY=0.5;exitDx=0;exitDy=0;" edge="1" parent="1" source="ljSAuXmUNwxbx2FRJAMX-51" target="ljSAuXmUNwxbx2FRJAMX-21">
          <mxGeometry relative="1" as="geometry" />
        </mxCell>
        <mxCell id="ljSAuXmUNwxbx2FRJAMX-51" value="Persistent Volume Claim" style="rounded=0;whiteSpace=wrap;html=1;" vertex="1" parent="1">
          <mxGeometry x="1275" y="300" width="160" height="30" as="geometry" />
        </mxCell>
        <mxCell id="ljSAuXmUNwxbx2FRJAMX-62" value="Configurations" style="text;html=1;strokeColor=none;fillColor=none;align=center;verticalAlign=middle;whiteSpace=wrap;rounded=0;" vertex="1" parent="1">
          <mxGeometry x="950" y="110" width="60" height="30" as="geometry" />
        </mxCell>
        <mxCell id="ljSAuXmUNwxbx2FRJAMX-64" value="Storage" style="text;html=1;strokeColor=none;fillColor=none;align=center;verticalAlign=middle;whiteSpace=wrap;rounded=0;" vertex="1" parent="1">
          <mxGeometry x="1290" y="140" width="60" height="30" as="geometry" />
        </mxCell>
        <mxCell id="ljSAuXmUNwxbx2FRJAMX-67" value="Runtime" style="text;html=1;strokeColor=none;fillColor=none;align=center;verticalAlign=middle;whiteSpace=wrap;rounded=0;" vertex="1" parent="1">
          <mxGeometry x="630" y="350" width="60" height="30" as="geometry" />
        </mxCell>
        <mxCell id="ljSAuXmUNwxbx2FRJAMX-73" value="Conotrollers" style="text;html=1;strokeColor=none;fillColor=none;align=center;verticalAlign=middle;whiteSpace=wrap;rounded=0;" vertex="1" parent="1">
          <mxGeometry x="590" y="100" width="60" height="30" as="geometry" />
        </mxCell>
        <mxCell id="ljSAuXmUNwxbx2FRJAMX-75" value="" style="rounded=0;whiteSpace=wrap;html=1;dashed=1;" vertex="1" parent="1">
          <mxGeometry x="980" y="370" width="450" height="90" as="geometry" />
        </mxCell>
        <mxCell id="ljSAuXmUNwxbx2FRJAMX-76" value="Scaling" style="text;html=1;strokeColor=none;fillColor=none;align=center;verticalAlign=middle;whiteSpace=wrap;rounded=0;" vertex="1" parent="1">
          <mxGeometry x="1180" y="370" width="60" height="30" as="geometry" />
        </mxCell>
        <mxCell id="ljSAuXmUNwxbx2FRJAMX-78" value="Cluster Autoscaler" style="rounded=0;whiteSpace=wrap;html=1;" vertex="1" parent="1">
          <mxGeometry x="990" y="410" width="80" height="30" as="geometry" />
        </mxCell>
        <mxCell id="ljSAuXmUNwxbx2FRJAMX-79" value="HorizontalPodAutoscaler" style="rounded=0;whiteSpace=wrap;html=1;" vertex="1" parent="1">
          <mxGeometry x="1080" y="410" width="150" height="30" as="geometry" />
        </mxCell>
        <mxCell id="ljSAuXmUNwxbx2FRJAMX-80" value="VerticalPodAutoscaler" style="rounded=0;whiteSpace=wrap;html=1;" vertex="1" parent="1">
          <mxGeometry x="1240" y="410" width="150" height="30" as="geometry" />
        </mxCell>
        <mxCell id="ljSAuXmUNwxbx2FRJAMX-81" value="" style="rounded=0;whiteSpace=wrap;html=1;dashed=1;" vertex="1" parent="1">
          <mxGeometry x="990" y="10" width="210" height="90" as="geometry" />
        </mxCell>
        <mxCell id="ljSAuXmUNwxbx2FRJAMX-82" value="Disaster Recovery" style="text;html=1;strokeColor=none;fillColor=none;align=center;verticalAlign=middle;whiteSpace=wrap;rounded=0;" vertex="1" parent="1">
          <mxGeometry x="1040" y="10" width="110" height="30" as="geometry" />
        </mxCell>
        <mxCell id="ljSAuXmUNwxbx2FRJAMX-83" value="PodDisruptionBudgets" style="rounded=0;whiteSpace=wrap;html=1;" vertex="1" parent="1">
          <mxGeometry x="1030" y="60" width="150" height="30" as="geometry" />
        </mxCell>
      </root>
    </mxGraphModel>
  </diagram>
</mxfile>
